<svg xmlns="http://www.w3.org/2000/svg" viewBox="0 0 64 64">
  <rect x="8" y="4" width="48" height="56" rx="4" fill="#f5576c" stroke="#d43f56" stroke-width="2"/>
  <rect x="12" y="8" width="40" height="12" rx="2" fill="#fff" opacity="0.9"/>
  <g fill="#fff">
    <rect x="12" y="24" width="8" height="8" rx="1.5"/>
    <rect x="24" y="24" width="8" height="8" rx="1.5"/>
    <rect x="36" y="24" width="8" height="8" rx="1.5"/>
    <rect x="48" y="24" width="4" height="20" rx="1.5" fill="#ffd700"/>
    <rect x="12" y="36" width="8" height="8" rx="1.5"/>
    <rect x="24" y="36" width="8" height="8" rx="1.5"/>
    <rect x="36" y="36" width="8" height="8" rx="1.5"/>
    <rect x="12" y="48" width="8" height="8" rx="1.5"/>
    <rect x="24" y="48" width="8" height="8" rx="1.5"/>
    <rect x="36" y="48" width="8" height="8" rx="1.5"/>
    <rect x="48" y="48" width="4" height="8" rx="1.5" fill="#90ee90"/>
  </g>
</svg>
